<svg xmlns="http://www.w3.org/2000/svg" width="23.951" height="18.936" viewBox="0 0 23.951 18.936">
  <g id="Group_1" data-name="Group 1" transform="translate(-771.049 -554.014)">
    <path id="Path" d="M791.806,572.951a.8.8,0,0,1-.564-.231l-17.563-17.371a.784.784,0,0,1,.014-1.1.805.805,0,0,1,1.115-.014L792.371,571.6a.783.783,0,0,1,.173.86A.8.8,0,0,1,791.806,572.951Z" fill="#9ba1b3"/>
    <path id="Path-2" data-name="Path" d="M783.008,569.792a10.881,10.881,0,0,1-5.934-1.8,14.956,14.956,0,0,1-4.426-4.491v0a18.03,18.03,0,0,1,3.255-3.564.1.1,0,0,0,.007-.145l-.994-.982a.1.1,0,0,0-.135-.006,19.641,19.641,0,0,0-3.447,3.8,1.561,1.561,0,0,0-.032,1.754,16.574,16.574,0,0,0,4.9,4.967,12.457,12.457,0,0,0,6.8,2.055,12.054,12.054,0,0,0,3.782-.621.1.1,0,0,0,.065-.071.1.1,0,0,0-.027-.092l-1.077-1.065a.2.2,0,0,0-.191-.049A10.335,10.335,0,0,1,783.008,569.792Z" fill="#9ba1b3"/>
    <path id="Path-3" data-name="Path" d="M794.742,562.617a16.822,16.822,0,0,0-4.953-4.961,12.632,12.632,0,0,0-6.781-2.076,11.455,11.455,0,0,0-3.737.633.1.1,0,0,0-.065.071.1.1,0,0,0,.027.092l1.075,1.064a.2.2,0,0,0,.194.049,9.724,9.724,0,0,1,2.505-.33,10.875,10.875,0,0,1,5.915,1.826,15.217,15.217,0,0,1,4.478,4.491.006.006,0,0,1,0,.008,15.386,15.386,0,0,1-3.2,3.589.1.1,0,0,0-.008.146l.993.982a.1.1,0,0,0,.135.006,17.011,17.011,0,0,0,3.425-3.873A1.574,1.574,0,0,0,794.742,562.617Z" fill="#9ba1b3"/>
    <path id="Path-4" data-name="Path" d="M783.025,558.738a4.838,4.838,0,0,0-1.066.118.1.1,0,0,0-.075.069.1.1,0,0,0,.026.1l5.618,5.555a.1.1,0,0,0,.1.025.1.1,0,0,0,.069-.075,4.7,4.7,0,0,0-.926-4.008A4.81,4.81,0,0,0,783.025,558.738Z" fill="#9ba1b3"/>
    <path id="Path-5" data-name="Path" d="M778.523,562.373a.1.1,0,0,0-.1-.025.1.1,0,0,0-.069.075,4.7,4.7,0,0,0,1.282,4.407,4.825,4.825,0,0,0,4.456,1.268.1.1,0,0,0,.076-.069.1.1,0,0,0-.026-.1Z" fill="#9ba1b3"/>
  </g>
</svg>
